<?xml version="1.0" encoding="utf-8"?>
<!-- Generator: Adobe Illustrator 16.0.0, SVG Export Plug-In . SVG Version: 6.00 Build 0)  -->
<!DOCTYPE svg PUBLIC "-//W3C//DTD SVG 1.1//EN" "http://www.w3.org/Graphics/SVG/1.1/DTD/svg11.dtd">
<svg version="1.1" id="Layer_1" xmlns="http://www.w3.org/2000/svg" xmlns:xlink="http://www.w3.org/1999/xlink" x="0px" y="0px"
	 width="27.043px" height="21.92px" viewBox="0 0 27.043 21.92" enable-background="new 0 0 27.043 21.92" xml:space="preserve">
<path d="M20.092,21.92c-3.842,0-6.939-3.79-6.973-3.828c-0.013-0.017-2.585-3.091-5.397-3.091s-5.384,3.074-5.408,3.105L0,16.194
	c0.355-0.428,3.585-4.193,7.722-4.193c4.139,0,7.368,3.766,7.724,4.193c0.635,0.756,2.715,2.726,4.646,2.726
	c1.928,0,4.019-1.976,4.66-2.737l2.291,1.938C26.715,18.508,23.729,21.92,20.092,21.92"/>
<path d="M20.092,9.918c-3.797,0-6.838-3.663-6.965-3.819C13.107,6.073,10.534,3,7.722,3S2.338,6.073,2.313,6.105L0,4.193
	C0.355,3.765,3.585,0,7.722,0c4.139,0,7.368,3.764,7.724,4.193c0.635,0.754,2.717,2.725,4.646,2.725c1.928,0,4.019-1.975,4.66-2.736
	l2.291,1.936C26.715,6.507,23.729,9.918,20.092,9.918"/>
</svg>
