<?xml version="1.0" encoding="utf-8"?>
<!-- Generator: Adobe Illustrator 16.0.0, SVG Export Plug-In . SVG Version: 6.00 Build 0)  -->
<!DOCTYPE svg PUBLIC "-//W3C//DTD SVG 1.1//EN" "http://www.w3.org/Graphics/SVG/1.1/DTD/svg11.dtd">
<svg version="1.1" id="Layer_1" xmlns="http://www.w3.org/2000/svg" xmlns:xlink="http://www.w3.org/1999/xlink" x="0px" y="0px"
	 width="22.061px" height="28.379px" viewBox="0 0 22.061 28.379" enable-background="new 0 0 22.061 28.379" xml:space="preserve">
<path fill="#FFFFFF" d="M11.039,3.938c3.316,3.416,8.021,8.801,8.021,13.412c0,4.428-3.604,8.029-8.03,8.029
	C6.602,25.379,3,21.777,3,17.35C3,12.696,7.715,7.334,11.039,3.938 M11.034,0c-0.201,0-0.396,0.079-0.54,0.236
	C6.807,3.892,0,10.731,0,17.35c0,6.082,4.948,11.029,11.03,11.029s11.03-4.947,11.03-11.029c0-6.619-6.809-13.458-10.463-17.114
	C11.44,0.079,11.235,0,11.034,0"/>
</svg>
