<?xml version="1.0" encoding="utf-8"?>
<!-- Generator: Adobe Illustrator 16.0.0, SVG Export Plug-In . SVG Version: 6.00 Build 0)  -->
<!DOCTYPE svg PUBLIC "-//W3C//DTD SVG 1.1//EN" "http://www.w3.org/Graphics/SVG/1.1/DTD/svg11.dtd">
<svg version="1.1" id="Layer_1" xmlns="http://www.w3.org/2000/svg" xmlns:xlink="http://www.w3.org/1999/xlink" x="0px" y="0px"
	 width="29px" height="28px" viewBox="0 0 29 28" enable-background="new 0 0 29 28" xml:space="preserve">
<path fill="#FFFFFF" d="M29,16v-3h-2.559c-0.274-3-1.133-4.348-2.416-5.998l1.707-1.798l-2.121-2.167L21.859,4.72
	C20.209,3.438,18,2.557,16,2.282V0h-3v2.282c-2,0.274-4.119,1.133-5.769,2.415L5.547,2.991L3.438,5.112l1.711,1.89
	C3.867,8.652,3.014,10,2.74,13H0v3h2.74c0.274,2,1.133,3.98,2.415,5.631l-1.706,1.615L5.57,25.32l1.661-1.729
	C8.881,24.873,11,25.709,13,25.982V28h3v-2.018c2-0.273,4.209-1.133,5.859-2.414l1.729,1.705l2.133-2.121l-1.701-1.521
	C25.303,19.98,26.166,18,26.439,16H29z M14.59,23.088c-4.937,0-8.955-4.018-8.955-8.955c0-4.938,4.018-8.956,8.955-8.956
	c4.938,0,8.955,4.017,8.955,8.956C23.545,19.07,19.527,23.088,14.59,23.088"/>
</svg>
