<?xml version="1.0" encoding="utf-8"?>
<!-- Generator: Adobe Illustrator 16.0.0, SVG Export Plug-In . SVG Version: 6.00 Build 0)  -->
<!DOCTYPE svg PUBLIC "-//W3C//DTD SVG 1.1//EN" "http://www.w3.org/Graphics/SVG/1.1/DTD/svg11.dtd">
<svg version="1.1" id="Layer_1" xmlns="http://www.w3.org/2000/svg" xmlns:xlink="http://www.w3.org/1999/xlink" x="0px" y="0px"
	 width="16.207px" height="29.238px" viewBox="0 0 16.207 29.238" enable-background="new 0 0 16.207 29.238" xml:space="preserve">
<path d="M7.995,29.238c-4.504,0-7.996-3.652-7.996-8.314c0-2.393,1.353-4.677,3.353-6.251V5.644C3.352,0.407,6.55,0,7.553,0h0.321
	c2.931,0,5.478,2.584,5.478,5.645v9.039c2,1.463,2.854,3.649,2.854,6.24C16.206,25.586,12.579,29.238,7.995,29.238 M7.553,3
	C7.238,3,6.352,3,6.352,5.644v9.817c0,0.52-0.304,1.001-0.744,1.274c-1.658,1.029-2.626,2.556-2.626,4.188
	c0,3.03,2.153,5.314,5.022,5.314c2.902,0,5.171-2.334,5.171-5.314c0-1.879-0.7-3.286-2.147-4.188
	c-0.441-0.273-0.676-0.756-0.676-1.274V5.644C10.352,4.26,9.133,3,7.874,3H7.553z"/>
</svg>
